# xmcd
#
# Track frame offsets: 
#        150
#        21494
#        41193
#        59075
#        80528
#        103867
#        125730
#        148708
#        167785
#        188766
#        205801
#
# Disc length: 2952 seconds
#
# Revision: 0
# Processed by: cddbd v1.5.2PL0 Copyright (c) Steve Scherf et al.
# Submitted via: ExactAudioCopy v1.0b3
#
DISCID=aa0b860b
DTITLE=Mezcaleros - Road To Texas
DYEAR=2012
DGENRE=Blues-Latino
TTITLE0=Let It Down
TTITLE1=Cajun River
TTITLE2=The Fox
TTITLE3=My Life Is Burning
TTITLE4=Hasta La Vista
TTITLE5=Gotta Go
TTITLE6=Eldorado
TTITLE7=Rock O'La
TTITLE8=Love On The Screen
TTITLE9=Breakdown Limousine
TTITLE10=Little Jimmy
EXTD=
EXTT0=
EXTT1=
EXTT2=
EXTT3=
EXTT4=
EXTT5=
EXTT6=
EXTT7=
EXTT8=
EXTT9=
EXTT10=
PLAYORDER=
